<svg fill="none" height="24" viewBox="0 0 24 24" width="24" xmlns="http://www.w3.org/2000/svg"><g fill="#292d32"><path d="m7.08002 16.1003c-.36 0-.71999-.09-1.04999-.28-.67-.38-1.07001-1.0601-1.07001-1.8201v-3.57c0-.26-.17-.69994-.38-.94994l-2.52002-2.65003c-.47-.46-.81-1.25999-.81-1.86999v-1.54999c0-1.21.91998-2.17002 2.09998-2.17002h8.90002c1.16 0 2.1.94001 2.1 2.10001v1.48001c0 .78-.45 1.63999-.89 2.07999l-2.93 2.58999c-.23.19-.42.65007-.42.99007v2.8999c0 .69-.41999 1.4601-.96999 1.7901l-.92004.5999c-.36.22-.74995.3301-1.13995.3301zm-3.73004-13.35006c-.34 0-.59998.29002-.59998.67002v1.54999c0 .17.17001.6.39001.82l2.57996 2.70999c.38.47.75 1.24.75 1.92996v3.57c0 .3.19006.4501.31006.5101.16.09.41995.14.63995 0l.93-.6001c.12-.07.26001-.3499.26001-.5199v-2.9001c0-.78997.39-1.65997.94-2.12997l2.88001-2.54999c.18-.18.42-.66999.42-.98999v-1.48001c0-.33-.27-.60001-.6-.60001h-8.90002z"/><path d="m15 22.75h-6c-5.43 0-7.75-2.32-7.75-7.75v-3c0-.41.34-.75.75-.75s.75.34.75.75v3c0 4.61 1.64 6.25 6.25 6.25h6c4.61 0 6.25-1.64 6.25-6.25v-6.00001c0-2.9-.68-4.58001-2.21-5.45001-.16-.09-.69-.32998-2.21-.56998-.41-.06-.69-.45002-.62-.86002s.46-.68999.86-.61999c1.31.21 2.2.44999 2.71.73999 2.02 1.15 2.97 3.30001 2.97 6.76001v6.00001c0 5.43-2.32 7.75-7.75 7.75z"/><path d="m18 13.75h-5c-.41 0-.75-.34-.75-.75s.34-.75.75-.75h5c.41 0 .75.34.75.75s-.34.75-.75.75z"/><path d="m18 17.75h-7c-.41 0-.75-.34-.75-.75s.34-.75.75-.75h7c.41 0 .75.34.75.75s-.34.75-.75.75z"/></g></svg>