<svg fill="none" height="24" viewBox="0 0 24 24" width="24" xmlns="http://www.w3.org/2000/svg"><g stroke="#292d32" stroke-linecap="round" stroke-linejoin="round" stroke-width="1.5"><path d="m14.3201 19.07c0 .61-.4001 1.41-.9101 1.72l-1.4099.91c-1.31.81-3.13004-.1-3.13004-1.72v-5.35c0-.71-.4-1.62-.81-2.12l-3.84003-4.04c-.51-.51-.90997-1.40999-.90997-2.01999v-2.32001c0-1.21.91002-2.11999 2.02002-2.11999h13.33992c1.11 0 2.0201.90999 2.0201 2.01999v2.22c0 .81-.51 1.82001-1.01 2.32001" stroke-miterlimit="10"/><path d="m16.07 16.52c1.7673 0 3.2-1.4327 3.2-3.2s-1.4327-3.2-3.2-3.2-3.2 1.4327-3.2 3.2 1.4327 3.2 3.2 3.2z"/><path d="m19.87 17.12-1-1"/></g></svg>